<svg width="334" height="503" viewBox="0 0 334 503" fill="none" xmlns="http://www.w3.org/2000/svg">
<rect x="0.646973" y="0.230957" width="333.353" height="502.735" fill="url(#paint0_radial)"/>
<path d="M175.153 264.065L97.4304 308.714L175.153 355.534L252.048 308.714L175.153 264.065Z" fill="#C4C4C4"/>
<path d="M93.4851 217.153L174.739 170.241L255.994 217.153V310.977L174.739 357.89L93.4851 310.977V217.153Z" stroke="black" stroke-width="6"/>
<g clip-path="url(#clip0)">
<path fill-rule="evenodd" clip-rule="evenodd" d="M192.114 249.241C186.678 247.111 180.824 245.998 174.912 245.998C162.485 245.998 150.797 250.848 142 259.654C133.241 268.422 128.375 280.069 128.297 292.449L128.287 294.112L129.74 294.933C136.743 298.895 144.662 300.978 152.687 300.978C152.908 300.978 153.13 300.977 153.351 300.974C160.347 300.874 167.267 299.201 173.541 296.115C171.563 295.014 169.667 293.776 167.865 292.41C156.929 296.693 144.535 296.165 134.046 290.8C135.066 269.075 153.057 251.673 174.912 251.673C180.99 251.673 186.994 253.01 192.416 255.55C192.486 253.447 192.386 251.339 192.114 249.241Z" fill="black"/>
<path fill-rule="evenodd" clip-rule="evenodd" d="M221.526 292.063C221.359 276.671 213.821 262.628 201.254 254.074C201.263 256.327 201.112 258.578 200.801 260.815C209.73 268.064 215.174 278.738 215.77 290.432C196.508 300.299 172.486 293.389 161.543 274.533C158.588 269.439 156.776 263.744 156.243 257.925C154.384 258.933 152.608 260.093 150.932 261.393C151.816 266.993 153.737 272.431 156.603 277.37C162.828 288.096 172.835 295.786 184.78 299.023C188.833 300.121 192.954 300.665 197.052 300.665C205.037 300.665 212.936 298.602 220.083 294.561L221.544 293.734L221.526 292.063Z" fill="black"/>
<path fill-rule="evenodd" clip-rule="evenodd" d="M176.56 213.93L175.119 213.09L173.678 213.928C166.558 218.071 160.643 224.01 156.572 231.103C153.056 237.229 150.977 244.091 150.489 251.095C152.438 249.943 154.469 248.931 156.568 248.065C158.377 236.519 165.131 226.083 175.116 219.706C193.457 231.43 199.488 255.738 188.472 274.721C185.488 279.862 181.409 284.307 176.576 287.72C178.381 288.814 180.277 289.764 182.246 290.559C186.714 286.958 190.517 282.546 193.412 277.559C206.274 255.395 198.714 226.851 176.56 213.93Z" fill="black"/>
<path fill-rule="evenodd" clip-rule="evenodd" d="M175.09 262.36C172.463 262.36 170.325 264.487 170.325 267.101C170.325 269.715 172.463 271.841 175.09 271.841C177.718 271.841 179.856 269.715 179.856 267.101C179.856 264.487 177.718 262.36 175.09 262.36ZM175.09 277.516C169.317 277.516 164.621 272.844 164.621 267.101C164.621 261.357 169.317 256.685 175.09 256.685C180.863 256.685 185.56 261.357 185.56 267.101C185.56 272.844 180.863 277.516 175.09 277.516Z" fill="black"/>
</g>
<defs>
<radialGradient id="paint0_radial" cx="0" cy="0" r="1" gradientUnits="userSpaceOnUse" gradientTransform="translate(28.8233 -43.9582) rotate(64.7181) scale(548.252 958.924)">
<stop stop-color="#F98C2A" stop-opacity="0.48"/>
<stop offset="0.661458" stop-color="white"/>
</radialGradient>
<clipPath id="clip0">
<rect width="93.2574" height="88.8515" fill="white" transform="translate(128.287 213.09)"/>
</clipPath>
</defs>
</svg>
